<svg xmlns="http://www.w3.org/2000/svg" viewBox="0 0 120 130" fill="none">
  <!--
    METTLE v5 — "The Forge"
    Faceted M atop geometric anvil. Gold seams at fold lines.
    Middle stroke = upward flame. Deep navy body. Biblical palette accents.
    Designed to read in silhouette. Jersey/stadium-wall worthy.
  -->

  <!-- ANVIL BASE — simplified 2-facet trapezoid -->
  <polygon points="20,108 100,108 92,98 28,98" fill="#3A1078"/>
  <polygon points="28,98 92,98 88,93 32,93" fill="#4C1A8A"/>
  <!-- Gold seam — anvil top edge -->
  <line x1="28" y1="98" x2="92" y2="98" stroke="#D4A843" stroke-width="1.2"/>

  <!-- M — 5 facets, deep navy primary -->
  <!-- Left leg -->
  <polygon points="22,93 36,93 36,30 22,38" fill="#1E3A6E"/>
  <!-- Left diagonal -->
  <polygon points="36,30 36,56 60,80 60,54" fill="#B8001F"/>
  <!-- Center flame / valley (middle stroke rising up — the "tell") -->
  <polygon points="52,54 60,28 68,54 60,80" fill="#D4A843" opacity="0.15"/>
  <polygon points="56,50 60,32 64,50 60,68" fill="#D4A843" opacity="0.25"/>
  <!-- Right diagonal -->
  <polygon points="60,54 60,80 84,56 84,30" fill="#4C1A8A"/>
  <!-- Right leg -->
  <polygon points="84,30 84,93 98,93 98,38" fill="#1E3A6E"/>

  <!-- GOLD SEAMS — fold lines where planes meet (inset, structural) -->
  <!-- Left leg inner edge -->
  <line x1="36" y1="30" x2="36" y2="93" stroke="#D4A843" stroke-width="1.4"/>
  <!-- Left diagonal to center -->
  <line x1="36" y1="30" x2="60" y2="54" stroke="#D4A843" stroke-width="1.4"/>
  <line x1="36" y1="56" x2="60" y2="80" stroke="#D4A843" stroke-width="1"/>
  <!-- Right diagonal from center -->
  <line x1="60" y1="54" x2="84" y2="30" stroke="#D4A843" stroke-width="1.4"/>
  <line x1="60" y1="80" x2="84" y2="56" stroke="#D4A843" stroke-width="1"/>
  <!-- Right leg inner edge -->
  <line x1="84" y1="30" x2="84" y2="93" stroke="#D4A843" stroke-width="1.4"/>
  <!-- M base on anvil -->
  <line x1="22" y1="93" x2="98" y2="93" stroke="#D4A843" stroke-width="1"/>
  <!-- Top diagonals -->
  <line x1="22" y1="38" x2="36" y2="30" stroke="#D4A843" stroke-width="1.2"/>
  <line x1="84" y1="30" x2="98" y2="38" stroke="#D4A843" stroke-width="1.2"/>

  <!-- Flame tip — the "tell": a single upward point from center valley -->
  <polygon points="57,32 60,18 63,32" fill="#D4A843" opacity="0.6"/>
  <polygon points="58.5,30 60,22 61.5,30" fill="#E8C36A" opacity="0.5"/>
</svg>
