<svg xmlns="http://www.w3.org/2000/svg" viewBox="0 0 120 120" fill="none">
  <defs>
    <linearGradient id="goldEdgeL" x1="0" y1="0" x2="1" y2="1">
      <stop offset="0%" stop-color="#8A6520"/>
      <stop offset="25%" stop-color="#C9973A"/>
      <stop offset="50%" stop-color="#D4A843"/>
      <stop offset="75%" stop-color="#C9973A"/>
      <stop offset="100%" stop-color="#8A6520"/>
    </linearGradient>
    <linearGradient id="purpleL" x1="0" y1="0" x2="0.3" y2="1">
      <stop offset="0%" stop-color="#4A1A99"/>
      <stop offset="100%" stop-color="#2A0E5C"/>
    </linearGradient>
    <linearGradient id="scarletL" x1="0" y1="0" x2="0.3" y2="1">
      <stop offset="0%" stop-color="#CC1230"/>
      <stop offset="100%" stop-color="#8A0C20"/>
    </linearGradient>
    <linearGradient id="navyL" x1="0" y1="0" x2="0" y2="1">
      <stop offset="0%" stop-color="#1E3A6E"/>
      <stop offset="100%" stop-color="#122448"/>
    </linearGradient>
    <linearGradient id="sparkL" x1="0.5" y1="0" x2="0.5" y2="1">
      <stop offset="0%" stop-color="#F0D478"/>
      <stop offset="100%" stop-color="#C9973A"/>
    </linearGradient>
  </defs>
  <polygon points="22,94 36,94 36,30 22,38" fill="url(#navyL)"/>
  <polygon points="36,30 36,54 60,78 60,54" fill="url(#scarletL)"/>
  <polygon points="60,54 60,78 84,54 84,30" fill="url(#purpleL)"/>
  <polygon points="84,30 84,94 98,94 98,38" fill="url(#navyL)"/>
  <polyline points="22,94 22,38 36,30 36,54 60,78 84,54 84,30 98,38 98,94"
    stroke="url(#goldEdgeL)" stroke-width="2.5" stroke-linejoin="miter" fill="none"/>
  <line x1="22" y1="94" x2="36" y2="94" stroke="url(#goldEdgeL)" stroke-width="2.5"/>
  <line x1="84" y1="94" x2="98" y2="94" stroke="url(#goldEdgeL)" stroke-width="2.5"/>
  <line x1="36" y1="30" x2="36" y2="94" stroke="#B8862A" stroke-width="1" opacity="0.3"/>
  <line x1="84" y1="30" x2="84" y2="94" stroke="#B8862A" stroke-width="1" opacity="0.3"/>
  <polygon points="60,72 66,80 60,88 54,80" fill="url(#sparkL)" opacity="0.9"/>
  <polygon points="60,75 63.5,80 60,85 56.5,80" fill="#F0D478" opacity="0.7"/>
</svg>
