<svg xmlns="http://www.w3.org/2000/svg" viewBox="0 0 480 100" width="480" height="100">
  <defs>
    <linearGradient id="fg" x1="0%" y1="0%" x2="100%" y2="100%">
      <stop offset="0%" stop-color="#00F0FF"/>
      <stop offset="100%" stop-color="#0088AA"/>
    </linearGradient>
    <linearGradient id="ff" x1="0%" y1="100%" x2="0%" y2="0%">
      <stop offset="0%" stop-color="#FF6B35"/>
      <stop offset="100%" stop-color="#FFB347"/>
    </linearGradient>
    <linearGradient id="fwg" x1="0%" y1="0%" x2="100%" y2="0%">
      <stop offset="0%" stop-color="#00F0FF"/>
      <stop offset="100%" stop-color="#00D4E0"/>
    </linearGradient>
  </defs>
  <!-- ICON -->
  <g transform="translate(6,6)">
    <polygon points="44,0 84,22 84,66 44,88 4,66 4,22" fill="none" stroke="url(#fg)" stroke-width="2.5" stroke-linejoin="miter"/>
    <polygon points="44,8 78,27 78,61 44,80 10,61 10,27" fill="none" stroke="#00F0FF" stroke-width="0.6" stroke-linejoin="miter" opacity="0.2"/>
    <path d="M22,66 L22,32 L34,50 L44,26 L54,50 L66,32 L66,66" fill="none" stroke="#00F0FF" stroke-width="4" stroke-linejoin="miter" stroke-linecap="square"/>
    <polygon points="38,22 44,10 50,22" fill="url(#ff)"/>
    <line x1="44" y1="26" x2="44" y2="22" stroke="#FF6B35" stroke-width="2" stroke-linecap="square"/>
  </g>
  <!-- WORDMARK -->
  <g transform="translate(116,26)">
    <!-- M -->
    <path d="M0,48 L0,0 L16,26 L32,0 L32,48" fill="none" stroke="url(#fwg)" stroke-width="5.5" stroke-linejoin="miter" stroke-linecap="square"/>
    <!-- E -->
    <path d="M48,0 L48,48 M48,0 L74,0 M48,24 L70,24 M48,48 L74,48" fill="none" stroke="url(#fwg)" stroke-width="5.5" stroke-linejoin="miter" stroke-linecap="square"/>
    <!-- T -->
    <path d="M90,0 L122,0 M106,0 L106,48" fill="none" stroke="url(#fwg)" stroke-width="5.5" stroke-linejoin="miter" stroke-linecap="square"/>
    <!-- T -->
    <path d="M138,0 L170,0 M154,0 L154,48" fill="none" stroke="url(#fwg)" stroke-width="5.5" stroke-linejoin="miter" stroke-linecap="square"/>
    <!-- L -->
    <path d="M186,0 L186,48 L214,48" fill="none" stroke="url(#fwg)" stroke-width="5.5" stroke-linejoin="miter" stroke-linecap="square"/>
    <!-- E -->
    <path d="M230,0 L230,48 M230,0 L256,0 M230,24 L252,24 M230,48 L256,48" fill="none" stroke="url(#fwg)" stroke-width="5.5" stroke-linejoin="miter" stroke-linecap="square"/>
    <!-- Accent baseline -->
    <line x1="0" y1="54" x2="256" y2="54" stroke="#FF6B35" stroke-width="1.5" opacity="0.5"/>
  </g>
</svg>